<?xml version="1.0" encoding="iso-8859-1"?>
<!-- Generator: Adobe Illustrator 19.0.0, SVG Export Plug-In . SVG Version: 6.00 Build 0)  -->
<svg version="1.1" id="Layer_1" xmlns="http://www.w3.org/2000/svg" xmlns:xlink="http://www.w3.org/1999/xlink" x="0px" y="0px"
	 viewBox="0 0 512 512" style="enable-background:new 0 0 512 512;" xml:space="preserve">
<g>
	<g>
		<rect y="416.652" width="512" height="15.673"/>
	</g>
</g>
<g>
	<g>
		<rect y="447.999" width="223.608" height="15.673"/>
	</g>
</g>
<g>
	<g>
		<rect x="288.392" y="447.999" width="223.608" height="15.673"/>
	</g>
</g>
<g>
	<g>
		<rect x="240.327" y="447.999" width="31.347" height="15.673"/>
	</g>
</g>
<g>
	<g>
		<rect x="112.849" y="392.619" width="96.131" height="15.673"/>
	</g>
</g>
<g>
	<g>
		<path d="M287.904,392.617V160.123c0-61.645-50.151-111.796-111.796-111.796c-61.644,0-111.795,50.151-111.795,111.796v40.233
			H55.38v15.673h73.143v-15.673h-8.552v-40.233c0-30.954,25.184-56.138,56.139-56.138c30.954,0,56.138,25.183,56.138,56.138v232.494
			h-8.639v15.673h73.143v-15.673H287.904z M272.23,367.54H256v15.673h16.23v9.404H247.92V160.123
			c0-39.596-32.215-71.812-71.813-71.812c-39.597,0-71.812,32.214-71.812,71.812v40.233H79.987v-40.233
			c0-53.002,43.121-96.122,96.122-96.122s96.121,43.12,96.121,96.122V367.54z"/>
	</g>
</g>
<g>
	<g>
		<rect x="55.38" y="224.391" width="73.143" height="15.673"/>
	</g>
</g>
<g>
	<g>
		<path d="M199.939,343.891V296.23h-31.711v-8.102h-15.673v8.102h-32.264v47.661h15.546v23.649h-7.314v15.673h63.739V367.54h-8.359
			v-23.649H199.939z M168.229,367.54H151.51v-23.649h16.718V367.54z M135.964,328.217v-16.314h48.301v16.314H135.964z"/>
	</g>
</g>
<g>
	<g>
		<rect x="311.38" y="392.619" width="96.131" height="15.673"/>
	</g>
</g>
<g>
	<g>
		<path d="M399.86,343.891V296.23h-32.056v-8.102h-15.673v8.102h-31.92v47.661h16.246v23.649h-8.359v15.673h64.784V367.54h-8.359
			v-23.649H399.86z M368.849,367.54h-16.718v-23.649h16.718V367.54z M384.187,328.217h-48.302v-16.314h48.302V328.217z"/>
	</g>
</g>
<g>
	<g>
		<rect x="72.098" y="256.783" width="15.673" height="14.629"/>
	</g>
</g>
<g>
	<g>
		<rect x="96.131" y="279.77" width="15.673" height="15.673"/>
	</g>
</g>
<g>
</g>
<g>
</g>
<g>
</g>
<g>
</g>
<g>
</g>
<g>
</g>
<g>
</g>
<g>
</g>
<g>
</g>
<g>
</g>
<g>
</g>
<g>
</g>
<g>
</g>
<g>
</g>
<g>
</g>
</svg>
