<?xml version="1.0" encoding="iso-8859-1"?>
<!-- Generator: Adobe Illustrator 19.0.0, SVG Export Plug-In . SVG Version: 6.00 Build 0)  -->
<svg version="1.1" id="Layer_1" xmlns="http://www.w3.org/2000/svg" xmlns:xlink="http://www.w3.org/1999/xlink" x="0px" y="0px"
	 viewBox="0 0 512 512" style="enable-background:new 0 0 512 512;" xml:space="preserve">
<g>
	<g>
		<path d="M458.065,176.134H207.871v-8.745v-30.417v-34.516h160.728c20.588,0,37.337-16.75,37.337-37.338
			c0-20.588-16.75-37.338-37.337-37.338H88.97C39.911,27.777,0,67.689,0,116.748v20.223v30.417v316.833h207.871V280.308h186.398
			v43.412h96.56v-43.412H512v-50.239C512,200.329,487.805,176.134,458.065,176.134z M30.417,116.748
			c0-32.286,26.266-58.553,58.553-58.553H368.6c3.816,0,6.92,3.105,6.92,6.921s-3.105,6.921-6.92,6.921H177.454v64.934H81.116
			V99.824H50.698v37.147H30.417V116.748z M460.412,293.304h-35.726v-12.995h35.726V293.304z M481.583,249.891h-87.314H177.454
			v203.913H30.417V167.389h20.281v257.71h30.417v-257.71h96.338v39.162h280.611c12.968,0,23.518,10.551,23.518,23.519V249.891z"/>
	</g>
</g>
<g>
</g>
<g>
</g>
<g>
</g>
<g>
</g>
<g>
</g>
<g>
</g>
<g>
</g>
<g>
</g>
<g>
</g>
<g>
</g>
<g>
</g>
<g>
</g>
<g>
</g>
<g>
</g>
<g>
</g>
</svg>
